<svg xmlns="http://www.w3.org/2000/svg" viewBox="0 0 512 512" role="img" aria-labelledby="title desc">
  <title>Shopping Spree Icon</title>
  <desc>Minimal shopping bag logo for the Shopping Spree progressive web app.</desc>
  <defs>
    <linearGradient id="bagGradient" x1="0" x2="1" y1="0" y2="1">
      <stop offset="0%" stop-color="#f43f5e" />
      <stop offset="100%" stop-color="#fb7185" />
    </linearGradient>
  </defs>
  <rect width="512" height="512" rx="64" fill="#fef2f2" />
  <path d="M160 168c0-52 44-88 96-88s96 36 96 88" fill="none" stroke="#0f172a" stroke-width="20" stroke-linecap="round" />
  <path d="M136 188c-12 0-22 9-23 21l-16 180c-1 12 9 23 21 23h276c12 0 22-11 21-23l-16-180c-1-12-11-21-23-21z" fill="url(#bagGradient)" stroke="#0f172a" stroke-width="18" stroke-linejoin="round" />
  <path d="M200 224c0 18-14 32-32 32s-32-14-32-32" fill="none" stroke="#0f172a" stroke-width="16" stroke-linecap="round" />
  <path d="M376 224c0 18-14 32-32 32s-32-14-32-32" fill="none" stroke="#0f172a" stroke-width="16" stroke-linecap="round" />
  <path d="M210 328h92" stroke="#0f172a" stroke-width="18" stroke-linecap="round" />
  <path d="M224 368h64" stroke="#0f172a" stroke-width="18" stroke-linecap="round" />
</svg>
